<svg xmlns="http://www.w3.org/2000/svg" viewBox="0 0 100 100">
  <defs>
    <linearGradient id="banana-grad" x1="0%" y1="0%" x2="100%" y2="100%">
      <stop offset="0%" stop-color="#ffeaa7"/>
      <stop offset="50%" stop-color="#fdcb6e"/>
      <stop offset="100%" stop-color="#f0b429"/>
    </linearGradient>
  </defs>
  <!-- バナナ本体 -->
  <path d="M30 78 Q18 60 22 40 Q26 20 44 12 Q50 8 54 12 Q46 22 42 40 Q38 58 50 72 Q60 82 75 76 Q80 72 78 65 Q82 70 80 78 Q76 88 62 88 Q46 90 30 78Z"
        fill="url(#banana-grad)" stroke="#e6a817" stroke-width="1"/>
  <!-- ヘタ -->
  <path d="M44 12 Q46 6 52 4" stroke="#8B5E3C" stroke-width="3" fill="none" stroke-linecap="round"/>
  <!-- ハイライト -->
  <path d="M34 68 Q26 52 30 36 Q34 24 42 18"
        stroke="white" stroke-width="4" fill="none" stroke-linecap="round" opacity="0.3"/>
</svg>
