<svg xmlns="http://www.w3.org/2000/svg" viewBox="0 0 100 100">
  <defs>
    <radialGradient id="straw-grad" cx="40%" cy="30%" r="65%">
      <stop offset="0%" stop-color="#ff6b6b"/>
      <stop offset="100%" stop-color="#c0392b"/>
    </radialGradient>
  </defs>
  <!-- ヘタ（葉っぱ） -->
  <path d="M50 22 L38 14 L44 24Z" fill="#27ae60"/>
  <path d="M50 22 L62 14 L56 24Z" fill="#27ae60"/>
  <path d="M50 22 L42 8 L50 20Z" fill="#2ecc71"/>
  <path d="M50 22 L58 8 L50 20Z" fill="#2ecc71"/>
  <path d="M50 18 Q52 10 48 4" stroke="#6d4c2a" stroke-width="2.5" fill="none" stroke-linecap="round"/>
  <!-- いちご本体 -->
  <path d="M26 32 Q24 55 38 76 Q46 88 50 90 Q54 88 62 76 Q76 55 74 32 Q62 22 50 22 Q38 22 26 32Z"
        fill="url(#straw-grad)"/>
  <!-- つぶつぶ -->
  <circle cx="40" cy="40" r="2" fill="#ffd93d"/>
  <circle cx="55" cy="38" r="2" fill="#ffd93d"/>
  <circle cx="35" cy="54" r="2" fill="#ffd93d"/>
  <circle cx="50" cy="52" r="2" fill="#ffd93d"/>
  <circle cx="65" cy="52" r="2" fill="#ffd93d"/>
  <circle cx="42" cy="66" r="2" fill="#ffd93d"/>
  <circle cx="58" cy="66" r="2" fill="#ffd93d"/>
  <circle cx="50" cy="78" r="2" fill="#ffd93d"/>
  <!-- ハイライト -->
  <ellipse cx="38" cy="38" rx="6" ry="10" fill="white" opacity="0.2" transform="rotate(-15 38 38)"/>
</svg>
