<svg xmlns="http://www.w3.org/2000/svg" viewBox="0 0 100 100">
  <defs>
    <linearGradient id="wm-outer" x1="0%" y1="0%" x2="0%" y2="100%">
      <stop offset="0%" stop-color="#27ae60"/>
      <stop offset="100%" stop-color="#1e8449"/>
    </linearGradient>
  </defs>
  <!-- すいか外側（緑） -->
  <path d="M15 55 A40 40 0 0 1 85 55 L85 60 A40 40 0 0 1 15 60Z" fill="url(#wm-outer)"/>
  <!-- 縞模様 -->
  <path d="M25 55 A35 35 0 0 1 30 40" stroke="#1a6b35" stroke-width="3" fill="none" opacity="0.5"/>
  <path d="M42 55 A35 35 0 0 1 44 32" stroke="#1a6b35" stroke-width="3" fill="none" opacity="0.5"/>
  <path d="M58 55 A35 35 0 0 1 56 32" stroke="#1a6b35" stroke-width="3" fill="none" opacity="0.5"/>
  <path d="M75 55 A35 35 0 0 1 70 40" stroke="#1a6b35" stroke-width="3" fill="none" opacity="0.5"/>
  <!-- すいか内側（赤） -->
  <path d="M20 55 A35 35 0 0 1 80 55 L80 57 A35 35 0 0 1 20 57Z" fill="#e74c3c"/>
  <!-- 果肉部分 -->
  <ellipse cx="50" cy="52" rx="30" ry="20" fill="#e74c3c"/>
  <!-- 白い皮の部分 -->
  <path d="M18 55 A37 37 0 0 1 82 55" stroke="white" stroke-width="3" fill="none" opacity="0.4"/>
  <!-- 種 -->
  <ellipse cx="35" cy="48" rx="2" ry="3.5" fill="#2c3e50" transform="rotate(-10 35 48)"/>
  <ellipse cx="50" cy="44" rx="2" ry="3.5" fill="#2c3e50"/>
  <ellipse cx="65" cy="48" rx="2" ry="3.5" fill="#2c3e50" transform="rotate(10 65 48)"/>
  <ellipse cx="42" cy="54" rx="2" ry="3.5" fill="#2c3e50" transform="rotate(-5 42 54)"/>
  <ellipse cx="58" cy="54" rx="2" ry="3.5" fill="#2c3e50" transform="rotate(5 58 54)"/>
  <!-- ハイライト -->
  <ellipse cx="40" cy="42" rx="8" ry="5" fill="white" opacity="0.15" transform="rotate(-10 40 42)"/>
</svg>
